<?xml version="1.0" standalone="no"?>
<!DOCTYPE svg PUBLIC "-//W3C//DTD SVG 20010904//EN"
 "http://www.w3.org/TR/2001/REC-SVG-20010904/DTD/svg10.dtd">
<svg version="1.0" xmlns="http://www.w3.org/2000/svg"
 width="16.000000pt" height="16.000000pt" viewBox="0 0 16.000000 16.000000"
 preserveAspectRatio="xMidYMid meet">
<metadata>
Created by potrace 1.11, written by Peter Selinger 2001-2013
</metadata>
<g transform="translate(0.000000,16.000000) scale(0.002667,-0.002667)"
fill="#000000" stroke="none">
<path d="M2918 5065 c-2 -1 -29 -5 -60 -9 -426 -44 -834 -333 -1028 -725 -74
-149 -109 -269 -135 -461 -5 -37 -6 -231 -1 -265 1 -11 6 -45 10 -75 18 -133
82 -321 154 -449 20 -36 84 -129 142 -206 139 -184 271 -376 345 -502 l60
-102 55 -1 c52 -1 1143 -2 1166 0 6 0 46 57 89 127 92 147 201 305 343 491
136 181 234 378 267 539 34 165 41 405 15 538 -122 637 -647 1085 -1287 1100
-72 2 -133 2 -135 0z"/>
<path d="M1289 4445 c-14 -8 -46 -40 -70 -72 -24 -32 -48 -63 -54 -69 -5 -7
-54 -70 -108 -140 -127 -168 -517 -680 -632 -829 -49 -65 -103 -134 -118 -155
-55 -72 -49 -161 16 -242 23 -29 49 -63 57 -74 23 -34 173 -228 180 -234 3 -3
17 -21 30 -40 14 -19 30 -42 37 -50 12 -15 163 -212 313 -410 355 -467 333
-442 388 -444 86 -2 142 105 107 204 -12 35 -117 176 -590 795 -34 44 -99 130
-145 190 -46 61 -99 128 -117 151 l-33 41 216 284 c119 156 227 298 239 314
13 17 74 95 134 175 61 80 146 190 188 245 101 130 122 171 117 229 -7 105
-83 168 -155 131z"/>
<path d="M4694 4453 c-32 -6 -75 -56 -84 -99 -14 -62 -3 -111 40 -172 33 -49
205 -276 243 -322 6 -8 55 -71 106 -140 52 -69 97 -127 100 -130 4 -3 69 -88
146 -190 76 -102 144 -190 150 -196 5 -7 19 -24 30 -39 11 -16 30 -42 43 -58
12 -17 22 -34 22 -38 0 -6 -641 -853 -748 -988 -107 -134 -133 -180 -137 -231
-5 -85 33 -151 97 -165 39 -9 80 17 124 77 21 29 43 58 49 64 5 6 19 23 30 38
11 15 70 92 130 171 61 79 184 241 275 360 91 119 228 299 304 398 76 100 145
197 153 215 17 41 11 113 -13 151 -11 17 -38 54 -60 83 -41 52 -277 361 -469
613 -54 72 -156 204 -225 295 -70 91 -147 193 -173 227 -30 38 -59 65 -78 72
-18 6 -32 10 -33 10 -1 -1 -11 -4 -22 -6z"/>
<path d="M2440 2041 c-22 -21 -40 -46 -41 -57 0 -10 -2 -26 -4 -35 -5 -27 31
-96 61 -116 26 -17 63 -18 559 -20 l530 -1 41 23 c68 40 85 121 40 191 -36 54
-41 54 -616 54 l-530 -1 -40 -38z"/>
<path d="M2464 1609 c-2 -3 -1 -19 2 -35 24 -143 118 -246 251 -274 l48 -11 1
-60 c2 -75 31 -122 90 -145 33 -13 72 -15 187 -12 129 3 149 5 174 24 44 33
66 80 67 140 1 51 2 54 31 59 89 17 179 79 221 152 27 45 58 152 48 163 -8 7
-1115 7 -1120 -1z"/>
</g>
</svg>
